<?xml version="1.0" standalone="no"?>
<!DOCTYPE svg PUBLIC "-//W3C//DTD SVG 20010904//EN"
 "http://www.w3.org/TR/2001/REC-SVG-20010904/DTD/svg10.dtd">
<svg version="1.0" xmlns="http://www.w3.org/2000/svg"
 width="373.000000pt" height="373.000000pt" viewBox="0 0 373.000000 373.000000"
 preserveAspectRatio="xMidYMid meet">
<metadata>
Created by potrace 1.11, written by Peter Selinger 2001-2013
</metadata>
<g transform="translate(0.000000,373.000000) scale(0.100000,-0.100000)"
fill="#000000" stroke="none">
<path d="M2210 2996 c-58 -24 -154 -62 -215 -86 -102 -40 -115 -48 -189 -120
l-78 -77 45 -26 c39 -23 57 -27 124 -27 87 0 149 -22 147 -52 -1 -10 -2 -28
-3 -39 -2 -41 -71 -95 -149 -119 -103 -31 -182 -30 -255 3 -49 22 -67 25 -120
21 -36 -3 -85 -16 -117 -31 -78 -36 -118 -39 -175 -14 -26 11 -53 21 -59 21
-22 0 -77 -66 -87 -106 -6 -21 -22 -62 -35 -89 -22 -47 -31 -54 -121 -100
-268 -139 -456 -274 -636 -459 -105 -108 -159 -179 -212 -279 -88 -166 -90
-265 -7 -299 34 -14 100 -13 117 2 8 6 49 64 91 128 90 135 271 324 419 437
50 38 92 72 95 75 12 15 183 122 251 158 78 41 194 82 234 82 12 0 35 -12 50
-26 24 -22 27 -30 21 -67 -25 -152 -208 -421 -455 -667 -141 -141 -250 -226
-377 -297 -95 -52 -116 -76 -116 -125 1 -106 76 -146 201 -108 149 45 302 145
463 303 167 164 286 314 391 493 l46 80 -25 49 c-19 38 -24 60 -20 90 6 48 27
65 71 58 l34 -5 -55 56 c-30 32 -62 68 -70 82 -21 31 -12 78 20 119 21 27 30
30 75 29 l51 0 -21 22 c-24 25 -28 69 -9 104 41 77 102 84 223 26 40 -19 74
-33 76 -31 1 2 -4 14 -13 27 -25 36 -21 91 10 122 38 37 86 39 172 4 l52 -20
72 68 c39 38 80 79 92 92 11 13 64 119 116 236 l96 213 -52 57 c-28 31 -58 56
-65 55 -8 0 -61 -20 -119 -43z m44 -132 c17 -7 22 -34 6 -34 -5 0 -7 -6 -4
-14 3 -7 -2 -16 -10 -19 -9 -4 -16 -13 -16 -22 0 -8 -7 -15 -15 -15 -8 0 -15
-7 -15 -15 0 -8 -7 -15 -15 -15 -7 0 -18 -8 -24 -17 -5 -10 -13 -15 -17 -11
-4 5 -13 3 -20 -2 -18 -16 -49 17 -33 36 6 7 8 17 5 22 -3 6 3 12 14 15 13 3
18 10 14 21 -4 12 0 16 15 16 13 0 21 6 21 16 0 10 6 14 15 10 8 -3 15 -1 15
5 0 8 13 16 47 28 1 1 8 -2 17 -5z"/>
<path d="M1935 1890 c-3 -5 3 -10 14 -10 20 0 21 -5 21 -139 0 -135 -1 -139
-22 -146 -21 -7 -20 -8 10 -12 17 -2 47 -2 65 0 28 3 29 5 10 11 -17 6 -22 17
-25 55 -4 66 0 81 23 81 14 0 34 -23 67 -75 45 -71 49 -75 85 -75 40 0 51 17
15 22 -14 2 -35 22 -55 52 -17 26 -41 59 -53 73 -24 28 -29 16 43 98 15 16 27
33 27 37 0 4 9 10 20 13 37 12 21 25 -30 25 -47 0 -70 -15 -34 -22 13 -2 6
-17 -30 -66 -62 -84 -83 -81 -78 12 3 40 8 56 18 56 8 0 14 5 14 10 0 6 -22
10 -49 10 -28 0 -53 -4 -56 -10z"/>
<path d="M2235 1890 c-3 -5 3 -10 14 -10 20 0 21 -5 21 -140 0 -135 -1 -140
-21 -140 -11 0 -17 -4 -14 -10 3 -6 50 -10 104 -10 107 0 110 2 111 68 0 32
-14 27 -31 -10 -13 -29 -19 -33 -61 -35 l-47 -3 -3 58 c-2 31 -2 94 0 140 3
80 4 82 28 82 14 0 22 4 19 10 -3 6 -30 10 -60 10 -30 0 -57 -4 -60 -10z"/>
<path d="M2480 1890 c0 -5 7 -10 15 -10 12 0 15 -19 15 -110 0 -127 12 -162
61 -179 43 -15 65 -14 105 5 44 21 57 63 56 182 0 71 3 95 14 99 30 11 12 23
-36 23 -27 0 -50 -4 -50 -10 0 -5 9 -10 21 -10 19 0 20 -5 18 -107 -1 -117
-16 -162 -54 -165 -81 -6 -94 16 -95 160 0 99 2 113 16 110 10 -2 19 3 21 10
3 9 -11 12 -51 12 -31 0 -56 -4 -56 -10z"/>
<path d="M2862 1890 c-12 -5 -30 -25 -39 -45 -14 -30 -15 -38 -3 -61 8 -14 32
-35 55 -46 58 -29 75 -47 75 -79 0 -21 -7 -32 -27 -42 -51 -25 -92 -9 -93 36
0 9 -7 17 -15 17 -12 0 -15 -10 -13 -40 3 -34 7 -40 30 -46 75 -16 143 15 154
70 8 47 -8 72 -69 102 -29 15 -55 32 -59 38 -21 31 2 73 43 80 33 5 50 -5 52
-32 1 -14 8 -22 19 -22 18 0 18 16 2 68 -4 14 -77 15 -112 2z"/>
<path d="M3045 1890 c-3 -5 3 -10 14 -10 20 0 21 -5 21 -140 0 -135 -1 -140
-21 -140 -11 0 -17 -4 -14 -10 3 -5 41 -10 83 -10 59 0 85 5 109 20 55 33 58
91 7 125 l-31 21 24 31 c34 44 25 89 -23 109 -38 16 -160 19 -169 4z m153 -30
c43 -40 19 -93 -46 -106 -34 -7 -34 -8 -34 71 0 47 2 51 30 53 17 1 37 -6 50
-18z m16 -151 c29 -23 32 -36 14 -73 -12 -27 -60 -43 -95 -32 -15 5 -18 16
-18 66 l0 60 36 0 c22 0 47 -8 63 -21z"/>
<path d="M3320 1890 c0 -5 9 -10 20 -10 19 0 20 -7 20 -140 0 -133 -1 -140
-20 -140 -11 0 -20 -4 -20 -10 0 -6 27 -10 60 -10 58 0 84 15 38 22 -21 3 -22
7 -21 118 2 169 1 160 23 160 11 0 20 5 20 10 0 6 -27 10 -60 10 -33 0 -60 -4
-60 -10z"/>
<path d="M3480 1890 c0 -5 7 -10 15 -10 13 0 15 -22 15 -140 0 -138 0 -140
-22 -140 -16 0 -19 -3 -11 -11 8 -8 41 -10 96 -7 92 5 119 19 132 71 8 32 -14
72 -45 82 -20 6 -20 7 3 38 37 53 31 88 -20 115 -27 15 -163 16 -163 2z m150
-33 c39 -35 12 -94 -47 -103 l-33 -5 0 66 0 65 30 -2 c17 -1 40 -11 50 -21z
m20 -152 c26 -24 25 -51 -3 -79 -16 -16 -34 -23 -58 -22 l-34 1 -3 63 -3 64
41 -5 c22 -2 49 -12 60 -22z"/>
</g>
</svg>
