<?xml version="1.0" standalone="no"?>
<!DOCTYPE svg PUBLIC "-//W3C//DTD SVG 20010904//EN"
 "http://www.w3.org/TR/2001/REC-SVG-20010904/DTD/svg10.dtd">
<svg version="1.0" xmlns="http://www.w3.org/2000/svg"
 width="640.000000pt" height="640.000000pt" viewBox="0 0 640.000000 640.000000"
 preserveAspectRatio="xMidYMid meet">
<metadata>
Created by potrace 1.11, written by Peter Selinger 2001-2013
</metadata>
<g transform="translate(0.000000,640.000000) scale(0.100000,-0.100000)"
fill="#000000" stroke="none">
<path d="M1949 6396 c-2 -2 -26 -7 -54 -10 -58 -8 -96 -16 -110 -25 -5 -3 -19
-7 -29 -8 -11 -2 -26 -12 -34 -24 -8 -11 -21 -18 -30 -15 -10 3 -42 8 -72 11
-30 3 -66 8 -80 10 -100 14 -143 19 -325 31 -103 7 -420 2 -420 -6 0 -1 -17
-3 -38 -5 -21 -2 -50 -6 -65 -10 -15 -4 -38 -9 -52 -12 -106 -21 -158 -45
-183 -83 -45 -67 -90 -171 -103 -235 -2 -11 -8 -42 -13 -70 -12 -63 -12 -272
1 -305 11 -29 75 -90 173 -164 74 -56 206 -136 224 -136 6 0 11 -4 11 -8 0 -5
6 -9 13 -9 6 0 28 -7 47 -15 84 -37 110 -45 235 -73 77 -18 173 -30 310 -41
138 -10 145 -12 188 -46 93 -76 298 -199 356 -214 9 -2 61 -19 116 -38 96 -33
199 -58 294 -70 24 -3 45 -7 47 -9 2 -1 6 -27 9 -56 7 -58 32 -131 46 -131 11
0 30 -35 35 -68 12 -71 81 -115 177 -113 66 1 126 -42 170 -124 20 -37 22 -56
24 -245 3 -235 5 -255 34 -279 22 -18 51 -21 199 -24 l85 -2 -2 -35 c-5 -67
12 -94 80 -130 71 -36 100 -61 128 -107 24 -39 71 -155 65 -161 -3 -2 -1 -15
5 -29 5 -13 11 -36 14 -51 12 -75 15 -90 20 -132 6 -50 14 -112 20 -150 2 -14
7 -52 10 -85 4 -33 10 -76 14 -95 4 -20 7 -43 5 -53 -1 -9 1 -17 4 -17 4 0 7
-15 8 -32 0 -18 3 -58 8 -88 4 -30 10 -75 12 -100 3 -25 9 -65 14 -88 10 -58
10 -162 -1 -215 -12 -57 -59 -166 -84 -197 -70 -86 -131 -127 -255 -170 -36
-13 -70 -27 -76 -32 -7 -5 -16 -8 -20 -6 -5 1 -26 -6 -48 -15 -21 -9 -40 -17
-42 -17 -4 0 -100 -43 -169 -76 -80 -39 -244 -131 -255 -144 -3 -3 -23 -17
-45 -30 -22 -13 -42 -27 -45 -30 -3 -4 -23 -18 -45 -32 -64 -41 -102 -80 -129
-134 -22 -44 -29 -71 -39 -144 -2 -8 -6 -20 -10 -27 -4 -7 -10 -94 -13 -194
-3 -100 -6 -187 -7 -193 -1 -6 9 -12 23 -14 l25 -3 3 -287 c3 -281 3 -288 27
-337 16 -31 38 -59 62 -74 75 -48 111 -52 468 -46 182 4 357 7 390 9 105 6
308 18 355 21 25 2 79 6 120 9 41 3 101 8 133 11 31 3 82 7 113 10 82 7 175
16 204 20 14 1 59 6 100 9 41 4 86 9 100 11 14 2 54 6 90 10 36 3 79 7 95 10
17 2 59 6 95 10 36 4 79 9 95 11 17 3 54 7 83 10 103 8 177 61 203 145 15 45
12 525 -5 939 -2 41 0 85 5 97 8 21 14 26 104 72 43 22 65 51 65 86 0 17 -24
39 -180 166 -69 56 -142 115 -162 132 -43 35 -95 112 -102 150 -2 15 -8 32
-12 38 -3 6 -6 84 -4 173 5 379 4 462 -4 481 -5 11 -10 34 -11 51 -2 17 -6 42
-11 55 -4 13 -9 29 -10 34 -5 27 -47 226 -74 355 -17 80 -33 154 -35 165 -3
19 -42 199 -51 238 -13 55 -26 123 -27 145 0 6 -4 12 -9 12 -5 0 -7 3 -5 8 4
6 -12 94 -38 207 -12 55 -18 108 -21 193 -2 76 1 102 17 140 27 62 80 110 142
127 4 2 10 4 15 5 4 2 12 4 17 5 6 2 12 4 15 5 20 8 128 11 590 13 289 2 536
7 550 11 46 15 122 79 168 140 43 59 67 103 64 119 -1 4 2 7 7 7 6 0 13 21 17
48 3 26 9 56 11 67 9 41 11 373 3 440 -5 39 -11 90 -14 115 -13 99 -30 168
-54 218 -26 54 -97 126 -142 145 -14 6 -33 17 -43 25 -9 9 -17 12 -17 9 0 -4
-19 2 -42 12 -40 16 -144 48 -190 56 -11 2 -25 8 -32 13 -14 12 -146 64 -166
67 -8 1 -22 4 -30 7 -32 13 -200 63 -245 74 -5 1 -62 16 -125 34 -63 17 -125
33 -138 36 -12 2 -98 23 -190 45 -92 23 -178 43 -192 45 -14 3 -33 7 -42 10
-9 3 -27 7 -40 9 -13 3 -70 14 -128 26 -58 12 -114 23 -125 25 -28 4 -93 15
-119 20 -11 2 -43 7 -71 10 -27 4 -54 9 -59 12 -5 3 -84 7 -175 8 -91 2 -177
5 -191 9 -14 3 -45 8 -70 11 -25 3 -58 8 -75 11 -16 3 -46 7 -65 10 -19 2 -46
6 -60 8 -14 2 -45 6 -70 9 -25 3 -56 8 -70 11 -14 3 -41 8 -60 10 -63 10 -174
26 -200 31 -14 2 -47 6 -75 9 -27 3 -59 7 -70 9 -21 3 -85 -23 -85 -35 0 -4
-23 -1 -50 6 -28 7 -53 13 -55 13 -3 0 -18 3 -33 7 -15 3 -45 8 -67 10 -22 3
-53 7 -70 10 -39 6 -371 16 -376 11z"/>
</g>
</svg>
